<svg xmlns="http://www.w3.org/2000/svg" viewBox="0 0 136.37 158.97"><defs><style>.cls-1{fill:#fcec0c;}</style></defs><title>logopasscontrol</title><g id="Capa_2" data-name="Capa 2"><g id="Layer_1" data-name="Layer 1"><path class="cls-1" d="M58,42.55q-4.92-5-13.06-5H40.08c-.5,0-.91.81-.91,1.71V48a1.12,1.12,0,0,0,1.56,1.13A8.15,8.15,0,0,1,43,48.89q4.53,0,6.66,3.1a12.12,12.12,0,0,1,1.43,3.07c.24.87.44,1.58.45,1.58v2.25a4.41,4.41,0,0,1-1.19,2.77,41.11,41.11,0,0,1-3.73,3.14l-5.95,4.33a78.66,78.66,0,0,0-6.21,5.05,36.68,36.68,0,0,0-5.56,6.27,31.87,31.87,0,0,0-4,8,31.18,31.18,0,0,0-1.55,10.29,26.46,26.46,0,0,0,1.48,9.44,18.6,18.6,0,0,0,3.95,6.4,15.09,15.09,0,0,0,5.56,3.69,17.49,17.49,0,0,0,6.21,1.16,14.63,14.63,0,0,0,7.89-1.87,14.66,14.66,0,0,0,3.41-3.15,1,1,0,0,1,1.8.11l1,1.68a3.14,3.14,0,0,0,2.46,1.42h4.22a1.64,1.64,0,0,0,1.64-1.64V58.29A25.41,25.41,0,0,0,62.67,55S61.28,45.91,58,42.55ZM51.79,96a29.76,29.76,0,0,1-.22,3.27,15.85,15.85,0,0,1-1.91,5.62Q47.53,108,43,108a7.69,7.69,0,0,1-6.34-2.71c-1.47-1.82-2.2-4.36-2.2-7.64a16.25,16.25,0,0,1,1.88-7.88,27.35,27.35,0,0,1,4.59-6.28,36.35,36.35,0,0,1,5.69-4.78c2-1.34,3.8-2.54,3.8-2.54.76-.49,1.37-.16,1.37.75Z"/><path class="cls-1" d="M37.54,57.57c0,.86,0,2.26-.12,3.11a31.89,31.89,0,0,1-1.23,6.87,16.45,16.45,0,0,1-3.63,5.78,14.54,14.54,0,0,1-5.23,3.38,16.92,16.92,0,0,1-6,1.1,14.3,14.3,0,0,1-6.15-1.16,13.53,13.53,0,0,1-4.17-3v44a1.57,1.57,0,0,1-1.56,1.56H1.73a1.56,1.56,0,0,1-1.56-1.56V2.54A1.56,1.56,0,0,1,1.73,1h4A3.3,3.3,0,0,1,8.18,2.27l.69,1A1.39,1.39,0,0,0,11,3.54a21.38,21.38,0,0,1,3.17-2.13A14.16,14.16,0,0,1,20.82,0q8.12,0,12.42,4.85t4.3,13.22ZM25.29,19.75A22.86,22.86,0,0,0,25,16.66a9.1,9.1,0,0,0-2-4.3,7.82,7.82,0,0,0-5.59-2.16,7.82,7.82,0,0,0-5.6,2.16,7.61,7.61,0,0,0-2.27,5.83V57.57a23,23,0,0,0,.25,3.1s.5,3,2,4.36a8.27,8.27,0,0,0,5.6,2A8.26,8.26,0,0,0,23,65q2.27-2,2.27-5.9Z"/><path class="cls-1" d="M96.83,37.51a25,25,0,0,0-8.74-1.39q-9.41,0-15,4.7T67.57,54.4A24,24,0,0,0,69,62.27a26.19,26.19,0,0,0,5,8.28c1.15,1.32,2.47,2.69,4,4.11S81,77.53,82.6,79s3.28,3,5,4.63,3.27,3.22,4.77,4.9A23.17,23.17,0,0,1,96,93.79a11.92,11.92,0,0,1,1,5q0,9.13-9.4,9.13c-3.35,0-5.85-.77-7.48-2.32a8.07,8.07,0,0,1-2.45-6.15V94.33H66.9v6q0,8.88,5.5,13.84t15.16,5q10.59,0,15.49-5.56T108,99.15a28.58,28.58,0,0,0-1.19-8.07,23.54,23.54,0,0,0-4.5-8.21,60.64,60.64,0,0,0-4.1-4.51c-1.59-1.59-3.25-3.15-5-4.7s-3.4-3.06-5-4.57-3.07-2.91-4.31-4.23a19.25,19.25,0,0,1-4-5.43A11.4,11.4,0,0,1,79,55.06a7.56,7.56,0,0,1,2.18-5.7q2.19-2.11,6.82-2.11a11.76,11.76,0,0,1,4.86.89,23.36,23.36,0,0,1,6-9.76A21.1,21.1,0,0,0,96.83,37.51Z"/><path class="cls-1" d="M21.81,139.45a7.68,7.68,0,0,0-.93-3.19,7,7,0,0,0-2-2.29A9,9,0,0,0,16,132.58a12.2,12.2,0,0,0-3.48-.48,9.61,9.61,0,0,0-4.53,1,9.92,9.92,0,0,0-3.29,2.77,12.37,12.37,0,0,0-2,3.94A15.16,15.16,0,0,0,2,144.4a19.15,19.15,0,0,0,.64,5.1,11.52,11.52,0,0,0,2,4.07,9.16,9.16,0,0,0,3.3,2.69,10.43,10.43,0,0,0,4.63,1,9.43,9.43,0,0,0,6.41-2.4A9.27,9.27,0,0,0,21,152.14a11.07,11.07,0,0,0,1.06-3.43h2a12.65,12.65,0,0,1-1.33,4.36,10.57,10.57,0,0,1-2.55,3.22,11.06,11.06,0,0,1-3.51,2,12.51,12.51,0,0,1-4.15.69,12.52,12.52,0,0,1-5.72-1.19A10.94,10.94,0,0,1,3,154.56,13.7,13.7,0,0,1,.72,149.9,20.74,20.74,0,0,1,0,144.4,17.53,17.53,0,0,1,.82,139a13.24,13.24,0,0,1,2.43-4.47,11.34,11.34,0,0,1,3.93-3,12.29,12.29,0,0,1,5.38-1.12,14.7,14.7,0,0,1,4.17.56,10.8,10.8,0,0,1,3.46,1.67,8.88,8.88,0,0,1,2.48,2.85,10.22,10.22,0,0,1,1.17,4Z"/><path class="cls-1" d="M26.23,144.66a18.05,18.05,0,0,1,.83-5.51,13.66,13.66,0,0,1,2.42-4.54,11.46,11.46,0,0,1,3.93-3.12,12.19,12.19,0,0,1,5.38-1.14,12.11,12.11,0,0,1,5.37,1.14,11.49,11.49,0,0,1,3.94,3.12,13.84,13.84,0,0,1,2.42,4.54,18.05,18.05,0,0,1,.83,5.51,18.29,18.29,0,0,1-.83,5.54,13.55,13.55,0,0,1-2.42,4.54,11.53,11.53,0,0,1-3.94,3.09A12.11,12.11,0,0,1,38.79,159a12.19,12.19,0,0,1-5.38-1.14,11.49,11.49,0,0,1-3.93-3.09,13.37,13.37,0,0,1-2.42-4.54A18.29,18.29,0,0,1,26.23,144.66Zm2,0a16.07,16.07,0,0,0,.69,4.71,12.89,12.89,0,0,0,2,4,9.69,9.69,0,0,0,3.3,2.79,10.34,10.34,0,0,0,9,0,9.88,9.88,0,0,0,3.3-2.79,12.66,12.66,0,0,0,2-4,16.42,16.42,0,0,0,0-9.42,12.72,12.72,0,0,0-2-4,9.91,9.91,0,0,0-3.3-2.8,10.34,10.34,0,0,0-9,0,9.72,9.72,0,0,0-3.3,2.8,13,13,0,0,0-2,4A16.07,16.07,0,0,0,28.25,144.66Z"/><path class="cls-1" d="M54.75,131h2v5.85h.11a8.62,8.62,0,0,1,1.52-2.74,9.91,9.91,0,0,1,2.28-2,10.2,10.2,0,0,1,2.85-1.28,11.88,11.88,0,0,1,3.14-.42,12.43,12.43,0,0,1,4.07.58,7.93,7.93,0,0,1,2.74,1.55,7.47,7.47,0,0,1,1.68,2.15,10.07,10.07,0,0,1,.87,2.42,13.58,13.58,0,0,1,.32,2.37c0,.76.06,1.43.06,2v16.92h-2V141a24.67,24.67,0,0,0-.16-2.55,7.54,7.54,0,0,0-.93-3A6.66,6.66,0,0,0,71,133.12a7.88,7.88,0,0,0-4.33-1,9.56,9.56,0,0,0-4.15.86,8.85,8.85,0,0,0-3.09,2.36,10.4,10.4,0,0,0-1.94,3.62,15,15,0,0,0-.67,4.6v14.8h-2Z"/><path class="cls-1" d="M95.51,137.05h.16a6.66,6.66,0,0,1,1.35-2.5,9.68,9.68,0,0,1,2.4-2,11.6,11.6,0,0,1,3.14-1.3,12.57,12.57,0,0,1,3.59-.4v2a9.53,9.53,0,0,0-3.65.32,8.78,8.78,0,0,0-3.91,2.34c-.49.53-.93,1.05-1.3,1.54a7.81,7.81,0,0,0-.93,1.65,10.41,10.41,0,0,0-.59,2,17.47,17.47,0,0,0-.26,2.66v15h-2V131h2Z"/><path class="cls-1" d="M134.84,91.08a23.54,23.54,0,0,0-4.5-8.21,60.64,60.64,0,0,0-4.1-4.51c-1.59-1.59-3.25-3.15-5-4.7s-3.4-3.06-5-4.57-3.07-2.91-4.31-4.23a19.25,19.25,0,0,1-4-5.43,11.4,11.4,0,0,1-.92-4.37,7.56,7.56,0,0,1,2.18-5.7q2.19-2.11,6.82-2.11,8.86,0,8.87,8.21v3.7h10.73V53.87a21.16,21.16,0,0,0-1.13-7A14.62,14.62,0,0,0,131,41.29a16.87,16.87,0,0,0-6.09-3.78,25,25,0,0,0-8.74-1.39q-9.4,0-15,4.7T95.65,54.4A24,24,0,0,0,97,62.27a26.19,26.19,0,0,0,5,8.28c1.15,1.32,2.47,2.69,4,4.11s3.06,2.87,4.7,4.37,3.28,3,5,4.63,3.27,3.22,4.77,4.9a23.17,23.17,0,0,1,3.64,5.23,11.92,11.92,0,0,1,1,5q0,9.13-9.4,9.13a12.75,12.75,0,0,1-5.81-1.16,19.24,19.24,0,0,1-5.74,9.93,24.68,24.68,0,0,0,11.55,2.49q10.59,0,15.5-5.56T136,99.15A28.58,28.58,0,0,0,134.84,91.08Z"/><path class="cls-1" d="M83.11,123.7V131H78.05v1.75h5.06v19.1a7.5,7.5,0,0,0,.56,3.68,4.69,4.69,0,0,0,1.78,2,6,6,0,0,0,2.58.8,18.85,18.85,0,0,0,3,0v-1.76a18.57,18.57,0,0,1-2.53-.05,4.1,4.1,0,0,1-1.86-.61,3,3,0,0,1-1.15-1.47,7.61,7.61,0,0,1-.37-2.61v-19.1h6V131h-6v-7.12C84.44,123.84,83.77,123.78,83.11,123.7Z"/><path class="cls-1" d="M134.35,115.57v43.34h2V112.72A21,21,0,0,1,134.35,115.57Z"/><path class="cls-1" d="M117.26,158.91a13.51,13.51,0,1,1,13.51-13.51A13.53,13.53,0,0,1,117.26,158.91Zm0-25a11.49,11.49,0,1,0,11.48,11.49A11.5,11.5,0,0,0,117.26,133.91Z"/><rect class="cls-1" x="110.04" y="143.06" width="14.44" height="4.67"/></g></g></svg>