<svg xmlns="http://www.w3.org/2000/svg" viewBox="0 0 69 73.06"><defs><style>.cls-1,.cls-3{fill:none;}.cls-2{fill:#fcec0c;}.cls-3{stroke:#fcec0c;stroke-miterlimit:10;}</style></defs><title>agro-icon</title><g id="Capa_2" data-name="Capa 2"><g id="Layer_1" data-name="Layer 1"><g id="Menu_Lateral" data-name="Menu Lateral"><rect class="cls-1" width="69" height="73.06"/><path class="cls-2" d="M36.3,23.4V19.16H40v1.66l3.81-2.21L40,16.41v1.65H36.3V12.94c2.26,0,4.12-2.41,4.47-4.52a9.39,9.39,0,0,0,0-2.7.92.92,0,0,1,.7.09,1.12,1.12,0,0,1,.5.61c.1.32,0,.7.15,1a1.83,1.83,0,0,0,.21-.26,2.54,2.54,0,0,0,.42-1.48,1.58,1.58,0,0,0-.48-1.27,2.12,2.12,0,0,0-.46-.29,1.65,1.65,0,0,1,.58.07,1.41,1.41,0,0,1,1.07,1.36A1.33,1.33,0,0,0,44,4.63a1.56,1.56,0,0,0-.54-1.21,2.44,2.44,0,0,0-.79-.51,1.41,1.41,0,0,0-.38-.12c.13,0,.34-.09.49-.08a2.24,2.24,0,0,1,.58.14,2.35,2.35,0,0,1,1,.64A2.7,2.7,0,0,1,45,5.26c.41-.29.51-1.06.57-1.52a2.86,2.86,0,0,0-.05-1.3,1,1,0,0,0-.07-.15,1.65,1.65,0,0,0-.7-.73,3.4,3.4,0,0,0-1.07-.37,2.79,2.79,0,0,0-2.38.87,2.85,2.85,0,0,0-.43.6,7.94,7.94,0,0,0-1.13,2.59,4.2,4.2,0,0,1-.63.87A2.86,2.86,0,0,1,36.65,7a2.11,2.11,0,0,1-1.31-.78,17.64,17.64,0,0,1-1-2.16,2.71,2.71,0,0,0-1.13-1l0-.06c.09-.23.14-.48.39-.58,0,0,.07-.05,0-.07a1.13,1.13,0,0,0-.7.1,2.44,2.44,0,0,0-.28.14.49.49,0,0,1,0-.11c0-.08.2-.55.27-.55a1.07,1.07,0,0,0-.47.1c-.1,0-.19.17-.32.16s-.08-.27-.06-.41a1.22,1.22,0,0,0-1,.92,1.76,1.76,0,0,0-1.37,1.08h0l-.5.29a1.33,1.33,0,0,0-.3.28c-.17.18-.76.44-.71.75s1,.26,1.2.38.46.31.72.44c0,.21-.05.42-.07.63-.05.5-.09,1-.14,1.49a.38.38,0,0,0,.37.37,2.83,2.83,0,0,0,.71,0,5.47,5.47,0,0,0,4.1,4.41s0,0,0,0v5.19H31.43V16.41l-3.82,2.2,3.82,2.21V19.16h3.76V23.4c-.1,0-.19,0-.29.06h1.68Z"/><path class="cls-3" d="M50.75,72.26h-30a2.65,2.65,0,0,1-2.65-2.65V56.05c0-1.17,11.29-22.85,15.81-31.48a2.06,2.06,0,0,1,3.66,0c4.52,8.63,15.8,30.31,15.8,31.48V69.61A2.65,2.65,0,0,1,50.75,72.26Z"/><path class="cls-2" d="M29.88,64.19V62.46a7.13,7.13,0,0,0,4.85-1.73,8.45,8.45,0,0,0,2.52-5.43.76.76,0,0,0-.84-.79c-4.28.51-6.24,2.41-7.13,3.92a6.5,6.5,0,0,0-.83,2.26c-.12-.13-.24-.25-.38-.38a11.64,11.64,0,0,0-4.35-1.91h0l-.18,0a2.69,2.69,0,0,0-.42-.07.76.76,0,0,0-.84.79,7.09,7.09,0,0,0,2.12,4.58,6,6,0,0,0,4,1.46v7.33h1.52V64.19Zm.7-5a6.93,6.93,0,0,1,5-3,6.39,6.39,0,0,1-1.88,3.44A5.62,5.62,0,0,1,29.94,61,5.17,5.17,0,0,1,30.58,59.2Zm-5.17,3.34A5.12,5.12,0,0,1,24,60,8.84,8.84,0,0,1,27,61.42a4.06,4.06,0,0,1,1.25,2.19A4.49,4.49,0,0,1,25.41,62.54Z"/><path class="cls-3" d="M36.41,34.64a.74.74,0,0,0-1.3,0c-.7,1.35-1.87,3.58-3,5.7a.64.64,0,0,0,.57.94h6.07a.65.65,0,0,0,.58-.94C38.28,38.22,37.11,36,36.41,34.64Z"/></g></g></g></svg>