<svg xmlns="http://www.w3.org/2000/svg" viewBox="0 0 69 73.06"><defs><style>.cls-1,.cls-2,.cls-4{fill:none;}.cls-2,.cls-4{stroke:#fcec0c;stroke-miterlimit:10;}.cls-2{stroke-linecap:round;}.cls-3{fill:#fcec0c;}.cls-4{stroke-width:0.25px;}</style></defs><title>cartelera-icon</title><g id="Capa_2" data-name="Capa 2"><g id="Layer_1" data-name="Layer 1"><g id="Menu_Lateral" data-name="Menu Lateral"><rect class="cls-1" width="69" height="73.06"/><path class="cls-2" d="M11.68,53.67a8,8,0,0,1-8-8V16a8,8,0,0,1,8-8H57.31a8,8,0,0,1,8,8V45.68a8,8,0,0,1-3.78,6.78"/><path class="cls-3" d="M40.27,33.93a1.36,1.36,0,0,0,0-2.41c-2.48-1.3-6.62-3.45-10.55-5.47A1.18,1.18,0,0,0,28,27.11V38.34a1.18,1.18,0,0,0,1.72,1.06C33.65,37.38,37.79,35.23,40.27,33.93Z"/><circle class="cls-3" cx="12.14" cy="13.46" r="1.15"/><circle class="cls-3" cx="17.14" cy="13.46" r="1.15"/><circle class="cls-3" cx="22.14" cy="13.46" r="1.15"/><path class="cls-3" d="M45.62,53.76V51.5c0-.56-.16-.84-.49-.84a.55.55,0,0,0-.52.3,2.09,2.09,0,0,0-.17,1v1.82H43v-5.7h1.43v.81q0,.56-.06,1.26h.07a1.19,1.19,0,0,1,.49-.46,1.45,1.45,0,0,1,.65-.13,1.4,1.4,0,0,1,1.08.4,1.54,1.54,0,0,1,.39,1.12v2.7Z"/><path class="cls-3" d="M48,48.58a.62.62,0,0,1,.18-.48.91.91,0,0,1,.58-.16.84.84,0,0,1,.58.17.56.56,0,0,1,.19.47c0,.42-.26.63-.77.63S48,49,48,48.58Zm1.47,5.18H48V49.61h1.43Z"/><path class="cls-3" d="M51.67,51.87H50.46l-.18-3.46h1.58Zm-1.38,1.28a.7.7,0,0,1,.2-.52,1,1,0,0,1,1.14,0,.69.69,0,0,1,.19.52.66.66,0,0,1-.2.52,1,1,0,0,1-1.12,0A.67.67,0,0,1,50.29,53.15Z"/><path class="cls-3" d="M61.26,60.43V58.8a2.21,2.21,0,0,0-2.21-2.21H46.3a2.21,2.21,0,0,0-2.21,2.21v7.88a2.21,2.21,0,0,0,2.21,2.21H59.05a2.21,2.21,0,0,0,2.21-2.21V65a.42.42,0,0,1,.22-.38l3.36-1.92-3.36-1.92A.44.44,0,0,1,61.26,60.43ZM48.35,64.48a1.86,1.86,0,1,1,1.86-1.86A1.87,1.87,0,0,1,48.35,64.48Zm4.36,0a1.86,1.86,0,1,1,1.86-1.86A1.86,1.86,0,0,1,52.71,64.48Zm4.36,0a1.86,1.86,0,1,1,1.86-1.86A1.86,1.86,0,0,1,57.07,64.48Z"/><path class="cls-3" d="M41.26,57.46a2.21,2.21,0,0,1-2.21-2.21V53.62a.44.44,0,0,0-.22-.39l-3.36-1.92,3.36-1.92a.43.43,0,0,0,.22-.38V47.37a2.21,2.21,0,0,1,2.21-2.21H54a2.21,2.21,0,0,1,2.21,2.21v7.88a2.18,2.18,0,0,1-.19.89H57a2.91,2.91,0,0,0,.15-.89V47.37A3.09,3.09,0,0,0,54,44.28H41.26a3.09,3.09,0,0,0-3.09,3.09v1.38l-3.81,2.18a.43.43,0,0,0-.22.38.44.44,0,0,0,.22.39l3.81,2.17v1.38a3.1,3.1,0,0,0,3.09,3.1h2.43a2.51,2.51,0,0,1,.33-.89Z"/><path class="cls-3" d="M57.07,61.64a1,1,0,1,0,1,1A1,1,0,0,0,57.07,61.64Z"/><path class="cls-3" d="M52.71,61.64a1,1,0,1,0,1,1A1,1,0,0,0,52.71,61.64Z"/><path class="cls-3" d="M48.35,61.64a1,1,0,1,0,1,1A1,1,0,0,0,48.35,61.64Z"/><circle class="cls-3" cx="28.58" cy="58.19" r="1.78"/><path class="cls-3" d="M24.61,58.29a.66.66,0,0,1-.53.2.67.67,0,0,1-.62-.73,5.13,5.13,0,0,1,1.48-3.21,5.22,5.22,0,0,1,3.18-1.48.67.67,0,0,1,.12,1.34,3.81,3.81,0,0,0-3.44,3.46A.61.61,0,0,1,24.61,58.29Z"/><path class="cls-3" d="M20.92,58a.68.68,0,0,1-.53.19.67.67,0,0,1-.62-.72,8.84,8.84,0,0,1,8-8.07.67.67,0,0,1,.12,1.34,7.45,7.45,0,0,0-4.62,2.16,7.54,7.54,0,0,0-2.17,4.68A.65.65,0,0,1,20.92,58Z"/><path class="cls-3" d="M16.82,57.65a.69.69,0,0,1-.53.2.68.68,0,0,1-.62-.73A13,13,0,0,1,27.41,45.29a.67.67,0,0,1,.73.61.67.67,0,0,1-.61.73A11.6,11.6,0,0,0,17,57.23.63.63,0,0,1,16.82,57.65Z"/><path class="cls-3" d="M37.38,61.21a3.63,3.63,0,0,0-1.91.68,3.6,3.6,0,0,0-1.91-.68,3.08,3.08,0,0,0-3.06,3.3c0,2.79,4.48,5.18,4.52,5.2a.91.91,0,0,0,.45.11,1,1,0,0,0,.45-.1s4.52-2.45,4.52-5.21A3.08,3.08,0,0,0,37.38,61.21Zm-1.91,6.51c-1.22-.75-3-2.25-3-3.21,0-.62.28-1.34,1.1-1.34a2.26,2.26,0,0,1,1.21.66,1,1,0,0,0,1.4,0,2.26,2.26,0,0,1,1.21-.66c.82,0,1.1.72,1.1,1.34C38.48,65.44,36.72,67,35.47,67.72Z"/><line class="cls-4" x1="8.83" y1="18.12" x2="61.34" y2="18.12"/></g></g></g></svg>