<svg xmlns="http://www.w3.org/2000/svg" viewBox="0 0 69 73.06"><defs><style>.cls-1,.cls-2,.cls-3{fill:none;}.cls-2,.cls-3{stroke:#fcec0c;stroke-miterlimit:10;}.cls-2{stroke-width:0.5px;}</style></defs><title>ciudad-icon</title><g id="Capa_2" data-name="Capa 2"><g id="Layer_1" data-name="Layer 1"><g id="Menu_Lateral" data-name="Menu Lateral"><rect class="cls-1" width="69" height="73.06"/><rect class="cls-2" x="12.92" y="47.21" width="2.47" height="2.47" rx="0.42" ry="0.42"/><rect class="cls-2" x="20.31" y="30.32" width="2.03" height="2.03" rx="0.35" ry="0.35"/><rect class="cls-2" x="20.31" y="26.19" width="2.03" height="2.03" rx="0.35" ry="0.35"/><rect class="cls-2" x="20.31" y="22.07" width="2.03" height="2.03" rx="0.35" ry="0.35"/><rect class="cls-2" x="12.92" y="53.06" width="2.47" height="2.47" rx="0.42" ry="0.42"/><path class="cls-3" d="M19.2,36.84V62.28h3.54V50.07a1,1,0,0,1,1-1H25.8V20.37a88.42,88.42,0,0,0-4.47-9,87.12,87.12,0,0,0-4.48,9V35.86h1.36A1,1,0,0,1,19.2,36.84Z"/><path class="cls-3" d="M18.21,35.86h-7a1,1,0,0,0-1,1v18.9H5.18a1,1,0,0,0-1,1V71.89h9.28V63.27a1,1,0,0,1,1-1H19.2V36.84A1,1,0,0,0,18.21,35.86Z"/><path class="cls-3" d="M51.05,56.89l-1.74,1.17a8.21,8.21,0,0,1-4.61,1.41,8.06,8.06,0,0,1-3-.59,7.42,7.42,0,0,1-1.2-.59,8.6,8.6,0,0,1-1.2-.88,8.25,8.25,0,0,1-2.78-5.35,7.94,7.94,0,0,1,0-.85c0-.12,0-.24,0-.36a8.61,8.61,0,0,1,.28-1.76h-13a1,1,0,0,0-1,1V62.28H14.47a1,1,0,0,0-1,1v8.64H51.19V56.8Z"/><path class="cls-3" d="M39.27,45a9.34,9.34,0,0,1,1.2-.86c.26-.15.52-.31.8-.44l.41-.18L42.9,43l-1.22-1.14-.09-.08a8.94,8.94,0,0,1-1.12-1.27A7.86,7.86,0,0,1,39.27,38a8.14,8.14,0,0,1,0-4.52,8.43,8.43,0,0,1,1.2-2.51,9.12,9.12,0,0,1,1.21-1.35,8.35,8.35,0,0,1,1.5-1.07h0V10.73a1.14,1.14,0,0,0-1-1.12l-.94-.06v-3a1.14,1.14,0,0,0-1.13-1.14H38.33V2.13A1.14,1.14,0,0,0,37.2,1H34.88a1.14,1.14,0,0,0-1.13,1.13V5.37H32a1.14,1.14,0,0,0-1.13,1.14v3l-.95.06a1.14,1.14,0,0,0-1.05,1.12V49.09h7.86A8.23,8.23,0,0,1,39.27,45Z"/><path class="cls-3" d="M59.45,58.08a8.18,8.18,0,0,1-4.61-1.4l-1.38-.93-.5-.34v16.5H51.19V56.8l-.14.09-1.74,1.17a8.21,8.21,0,0,1-4.61,1.41,8.06,8.06,0,0,1-3-.59,7.42,7.42,0,0,1-1.2-.59,8.6,8.6,0,0,1-1.2-.88,8.25,8.25,0,0,1-2.78-5.35,7.94,7.94,0,0,1,0-.85c0-.12,0-.24,0-.36A8.29,8.29,0,0,1,39.27,45a9.34,9.34,0,0,1,1.2-.86c.26-.15.52-.31.8-.44l.41-.18L42.9,43l-1.22-1.14-.09-.08a8.94,8.94,0,0,1-1.12-1.27A7.86,7.86,0,0,1,39.27,38a8.14,8.14,0,0,1,0-4.52,8.43,8.43,0,0,1,1.2-2.51,9.12,9.12,0,0,1,1.21-1.35A8.22,8.22,0,0,1,53,29.85l.51.51.69-.21a8.43,8.43,0,0,1,2.39-.35,8.27,8.27,0,0,1,8.26,8.25A8,8,0,0,1,64,41.71l-.44.9.8.6a8.25,8.25,0,0,1-4.92,14.87Z"/><rect class="cls-2" x="15.03" y="64.27" width="2.47" height="2.47" rx="0.42" ry="0.42"/><rect class="cls-2" x="19.74" y="64.27" width="2.47" height="2.47" rx="0.42" ry="0.42"/></g></g></g></svg>