<svg xmlns="http://www.w3.org/2000/svg" viewBox="0 0 69 73.06"><defs><style>.cls-1,.cls-2{fill:none;}.cls-2{stroke:#fcec0c;stroke-miterlimit:10;}.cls-3{fill:#fcec0c;}</style></defs><title>hogar-icon</title><g id="Capa_2" data-name="Capa 2"><g id="Layer_1" data-name="Layer 1"><g id="Menu_Lateral" data-name="Menu Lateral"><rect class="cls-1" width="69" height="73.06"/><path class="cls-2" d="M63.71,38.92a1.62,1.62,0,0,0-.18-.2L38.7,13.9a6,6,0,0,0-8.41,0L24,20.15V14.46a3.12,3.12,0,0,0-3.12-3.12H14.16A3.12,3.12,0,0,0,11,14.46V33.15L5.46,38.73a1.54,1.54,0,0,0-.17.19,3.27,3.27,0,0,0-.51,3.57,3.39,3.39,0,0,0,3.13,2h6.83V67.7a3.51,3.51,0,0,0,3.51,3.51h32.5a3.51,3.51,0,0,0,3.51-3.51V44.52h6.83a3.41,3.41,0,0,0,3.13-2A3.29,3.29,0,0,0,63.71,38.92Z"/><path class="cls-2" d="M50.12,33.28,50,33.2,39.5,22.66a2.52,2.52,0,0,0-3.57,0L25.38,33.2l-.07.08a1.41,1.41,0,0,0-.22,1.52,1.45,1.45,0,0,0,1.33.86H49a1.45,1.45,0,0,0,1.33-.86A1.41,1.41,0,0,0,50.12,33.28Z"/><path class="cls-3" d="M39.27,58.93V56.31a10.8,10.8,0,0,0,7.38-2.62,12.88,12.88,0,0,0,3.82-8.25,1.16,1.16,0,0,0-1.29-1.19c-6.49.76-9.47,3.65-10.82,5.94a10.06,10.06,0,0,0-1.26,3.44,6.21,6.21,0,0,0-.57-.58c-1.92-1.78-6.13-2.79-6.6-2.9h0l-.26-.06c-.19,0-.26,0-.64-.1a1.13,1.13,0,0,0-.91.3,1.16,1.16,0,0,0-.37.89,10.85,10.85,0,0,0,3.23,7,9.1,9.1,0,0,0,6,2.22V71.48h2.29V59.21A2.52,2.52,0,0,0,39.27,58.93Zm1.07-7.57c1.4-2.37,4-3.91,7.61-4.6A9.86,9.86,0,0,1,45.1,52a8.62,8.62,0,0,1-5.73,2A7.63,7.63,0,0,1,40.34,51.36Zm-7.85,5.08a7.74,7.74,0,0,1-2.2-3.82A13.43,13.43,0,0,1,35,54.73a6.22,6.22,0,0,1,1.9,3.32A6.79,6.79,0,0,1,32.49,56.44Z"/></g></g></g></svg>