<svg xmlns="http://www.w3.org/2000/svg" viewBox="0 0 69.6 73.06"><defs><style>.cls-1,.cls-2,.cls-3{fill:none;}.cls-2,.cls-3{stroke:#fcec0c;stroke-miterlimit:10;}.cls-3{stroke-width:0.5px;}.cls-4{fill:#fcec0c;}</style></defs><title>industria-icon</title><g id="Capa_2" data-name="Capa 2"><g id="Layer_1" data-name="Layer 1"><g id="Menu_Lateral" data-name="Menu Lateral"><rect class="cls-1" width="69" height="73.06"/><path class="cls-2" d="M33.5,70.4V49L16.8,28.56a2.38,2.38,0,0,0-4,1.78V45.77l4.81-4.84a1.71,1.71,0,0,1,2.85,1.28V72.1H35.21A1.7,1.7,0,0,1,33.5,70.4Z"/><path class="cls-2" d="M17.64,40.93l-4.81,4.84L1.57,57.07A1.71,1.71,0,0,0,1,58.34V72.1H20.49V42.21A1.71,1.71,0,0,0,17.64,40.93Z"/><path class="cls-2" d="M53.72,57.07,36.35,40.93a1.71,1.71,0,0,0-2.85,1.28V70.4a1.7,1.7,0,0,0,1.71,1.7H54.29V58.34A1.71,1.71,0,0,0,53.72,57.07Z"/><path class="cls-2" d="M69.09,41.91a6.32,6.32,0,0,1-6,5.81,6.24,6.24,0,0,1-3.76-1l-.82-.56v26H56.59v-25l-.82.55a6.25,6.25,0,0,1-4,1.05,5.58,5.58,0,0,1-.57-.08c-.2,0-.4-.08-.6-.13a5.29,5.29,0,0,1-.6-.21,6.25,6.25,0,0,1-.34-11.5l.13-.06.59-.27-.58-.54,0,0a6.25,6.25,0,0,1-2-5,6.08,6.08,0,0,1,.3-1.48,5.87,5.87,0,0,1,.24-.63,5.65,5.65,0,0,1,.31-.6,6.25,6.25,0,0,1,9.8-1.25l.23.22.3-.09a6.25,6.25,0,0,1,7.41,8.76l-.2.39.36.27A6.25,6.25,0,0,1,69.09,41.91Z"/><rect class="cls-3" x="23.34" y="62.65" width="5.86" height="5.86" rx="1" ry="1"/><rect class="cls-3" x="24.31" y="52.42" width="3.93" height="3.93" rx="0.67" ry="0.67"/><rect class="cls-3" x="12.79" y="49.03" width="3.93" height="3.93" rx="0.67" ry="0.67"/><path class="cls-4" d="M9.7,65.89v-1.4a5.85,5.85,0,0,0,4-1.41,7,7,0,0,0,2.06-4.44A.62.62,0,0,0,15,58c-3.49.41-5.09,2-5.82,3.19A5.57,5.57,0,0,0,8.53,63a3,3,0,0,0-.31-.31,9.61,9.61,0,0,0-3.55-1.56h0l-.14,0-.34-.05a.66.66,0,0,0-.5.16.63.63,0,0,0-.19.48,5.8,5.8,0,0,0,1.73,3.75,4.88,4.88,0,0,0,3.24,1.19V72.1H9.7V65.89Zm.57-4.07a5.67,5.67,0,0,1,4.1-2.47,5.3,5.3,0,0,1-1.54,2.81,4.58,4.58,0,0,1-3.08,1.09A4.12,4.12,0,0,1,10.27,61.82ZM6.05,64.55a4.2,4.2,0,0,1-1.18-2,7.35,7.35,0,0,1,2.52,1.14,3.38,3.38,0,0,1,1,1.78A3.68,3.68,0,0,1,6.05,64.55Z"/><rect class="cls-3" x="38" y="56.91" width="4.81" height="4.81" rx="0.82" ry="0.82"/></g></g></g></svg>