<svg xmlns="http://www.w3.org/2000/svg" viewBox="0 0 69 73.06"><defs><style>.cls-1{fill:none;}.cls-2{fill:#fcec0c;}</style></defs><title>movilidad-icon</title><g id="Capa_2" data-name="Capa 2"><g id="Layer_1" data-name="Layer 1"><g id="Menu_Lateral" data-name="Menu Lateral"><rect class="cls-1" width="69" height="73.06"/><path class="cls-2" d="M.68,73a.18.18,0,0,1-.1,0,.24.24,0,0,1,0-.33c.33-.44.71-.94,1.15-1.5a.25.25,0,0,1,.33,0,.24.24,0,0,1,0,.33c-.43.55-.82,1-1.14,1.49A.21.21,0,0,1,.68,73ZM3,70A.21.21,0,0,1,2.9,70a.24.24,0,0,1,0-.33c.38-.46.79-.94,1.23-1.43a.23.23,0,1,1,.35.31C4,69,3.61,69.51,3.24,70A.23.23,0,0,1,3,70ZM5.5,67.22a.34.34,0,0,1-.12-.06.24.24,0,0,1,0-.33c.41-.45.85-.9,1.3-1.37a.24.24,0,0,1,.34,0,.24.24,0,0,1,0,.33c-.45.46-.89.91-1.3,1.36A.23.23,0,0,1,5.5,67.22Zm2.63-2.7A.22.22,0,0,1,8,64.46a.25.25,0,0,1,0-.34l1.37-1.29a.22.22,0,0,1,.33,0,.23.23,0,0,1,0,.33c-.47.44-.93.87-1.36,1.29A.21.21,0,0,1,8.13,64.52ZM30,50.08a.2.2,0,0,1-.17-.14.22.22,0,0,1,.12-.3l1.75-.7a.24.24,0,0,1,.31.13.23.23,0,0,1-.14.31c-.58.22-1.17.45-1.74.69A.2.2,0,0,1,30,50.08Zm3.52-1.33a.24.24,0,0,1-.18-.16.24.24,0,0,1,.15-.3c.58-.2,1.18-.4,1.79-.59a.22.22,0,0,1,.29.15.22.22,0,0,1-.15.29c-.6.19-1.2.39-1.78.6Zm3.59-1.15a.24.24,0,0,1-.19-.16.24.24,0,0,1,.16-.3c.61-.17,1.22-.34,1.82-.49a.24.24,0,0,1,.29.17.23.23,0,0,1-.17.28c-.6.16-1.2.32-1.81.5Zm3.64-.94a.22.22,0,0,1-.19-.18.24.24,0,0,1,.18-.28l1.85-.39a.22.22,0,0,1,.27.18.23.23,0,0,1-.18.28l-1.83.39A.17.17,0,0,1,40.73,46.66Zm3.69-.73a.23.23,0,0,1-.19-.2.24.24,0,0,1,.19-.27l1.87-.29a.23.23,0,0,1,.26.2.24.24,0,0,1-.2.27c-.61.08-1.23.18-1.85.29Zm3.73-.53a.26.26,0,0,1-.2-.21.25.25,0,0,1,.21-.26L50,44.75a.23.23,0,0,1,.25.21.23.23,0,0,1-.21.25l-1.87.19Zm3.75-.33a.22.22,0,0,1-.2-.21.24.24,0,0,1,.22-.25l1.89-.09a.22.22,0,0,1,.24.23.23.23,0,0,1-.22.24L52,45.08ZM55.66,45a.24.24,0,0,1,0-.47l1.89,0a.24.24,0,0,1,0,.47L55.7,45Zm3.76.08a.23.23,0,0,1-.19-.24.22.22,0,0,1,.24-.22l1.89.11a.28.28,0,0,1,.21.26.23.23,0,0,1-.25.21l-1.87-.11Zm3.75.29a.23.23,0,0,1,.07-.46l1.87.22h0a.23.23,0,0,1-.07.46c-.59-.07-1.22-.15-1.86-.21Zm3.74.49a.23.23,0,0,1-.19-.26.23.23,0,0,1,.26-.2l1.13.19.66.12a.23.23,0,0,1-.09.46h0L67.75,46l-.84-.14Z"/><path class="cls-2" d="M17.21,20.29A15.19,15.19,0,0,0,2.14,34.36l0,.43c0,.22,0,.44,0,.67s0,.2,0,.33v0a10.75,10.75,0,0,0,.06,1.11l0,.26c0,.32.09.63.15,1s.08.44.12.62c2,9,12.23,23.61,12.67,24.23l2.08,3,2.05-3c.39-.57,9.54-14,12.22-22.66a16.35,16.35,0,0,0,.57-2.24,12.45,12.45,0,0,0,.24-2.27v-.37A15.16,15.16,0,0,0,17.21,20.29ZM31.12,35.83a11.34,11.34,0,0,1-.23,2.06A14.38,14.38,0,0,1,30.37,40c-2.63,8.56-11.68,21.8-12.07,22.35L17.22,63.9l-1.1-1.56C15.7,61.73,5.61,47.29,3.65,38.53c0-.17-.08-.37-.12-.57s-.1-.61-.14-.91l0-.25c0-.32,0-.66,0-1v-.1c0-.11,0-.19,0-.27s0-.42,0-.61l0-.42a13.91,13.91,0,0,1,27.79,1Z"/><path class="cls-2" d="M17.21,26.89a8.47,8.47,0,1,0,8.43,8.47A8.46,8.46,0,0,0,17.21,26.89Zm0,15.75a7.28,7.28,0,1,1,7.24-7.28A7.27,7.27,0,0,1,17.21,42.64Z"/><path class="cls-2" d="M21,25.19a.69.69,0,0,0,0-1.37.69.69,0,0,0,0,1.37Z"/><path class="cls-2" d="M23.91,25a.51.51,0,0,0-.71.19.52.52,0,0,0,.2.71,9.7,9.7,0,0,1,4.89,8.42.52.52,0,0,0,.52.52.52.52,0,0,0,.52-.52A10.72,10.72,0,0,0,23.91,25Z"/><path class="cls-2" d="M48.33,3.1A11.56,11.56,0,0,0,36.86,13.8l0,.33c0,.16,0,.34,0,.51s0,.15,0,.25v0a8,8,0,0,0,0,.84l0,.2c0,.25.07.49.12.74s.06.34.09.48c1.53,6.83,9.31,18,9.64,18.43l1.58,2.26,1.57-2.27c.29-.43,7.26-10.62,9.29-17.25a10.33,10.33,0,0,0,.43-1.7,8.92,8.92,0,0,0,.19-1.73v-.28A11.53,11.53,0,0,0,48.33,3.1ZM58.91,14.92a8.11,8.11,0,0,1-.17,1.57,9.89,9.89,0,0,1-.4,1.58c-2,6.52-8.89,16.59-9.18,17l-.82,1.2-.84-1.19c-.32-.46-8-11.45-9.49-18.12,0-.12-.06-.27-.09-.43s-.08-.46-.11-.69l0-.19a6.23,6.23,0,0,1,0-.74v-.08a1.48,1.48,0,0,1,0-.2c0-.16,0-.32,0-.47l0-.31a10.58,10.58,0,0,1,21.14.78Z"/><path class="cls-2" d="M48.33,8.12a6.45,6.45,0,1,0,6.42,6.44A6.44,6.44,0,0,0,48.33,8.12Zm0,12a5.54,5.54,0,1,1,5.51-5.54A5.54,5.54,0,0,1,48.33,20.1Z"/><path class="cls-2" d="M51.19,6.82a.52.52,0,0,0,.52-.52.52.52,0,1,0-1,0A.51.51,0,0,0,51.19,6.82Z"/><path class="cls-2" d="M53.43,6.71a.39.39,0,0,0-.54.15A.4.4,0,0,0,53,7.4a7.36,7.36,0,0,1,3.72,6.4.4.4,0,1,0,.8,0A8.17,8.17,0,0,0,53.43,6.71Z"/></g></g></g></svg>