<svg xmlns="http://www.w3.org/2000/svg" viewBox="0 0 69 73.06"><defs><style>.cls-1{fill:none;}.cls-2{fill:#fcec0c;}</style></defs><title>segyvig-icon</title><g id="Capa_2" data-name="Capa 2"><g id="Layer_1" data-name="Layer 1"><g id="Menu_Lateral" data-name="Menu Lateral"><rect class="cls-1" width="69" height="73.06"/><path class="cls-1" d="M55.72,44.76l8.41-8.41a1.84,1.84,0,0,0,0-2.59L32.35,2a1.83,1.83,0,0,0-2.6,0l-8.4,8.41a1.78,1.78,0,0,0-.54,1.29,1.82,1.82,0,0,0,.54,1.3L42.07,33.7,53.13,44.76A1.88,1.88,0,0,0,55.72,44.76Z"/><path class="cls-1" d="M12.28,45.11h-9a5.35,5.35,0,0,1,1.13,3.27,5.4,5.4,0,0,1-1.13,3.27h9a6.78,6.78,0,0,1,0-6.54Z"/><path class="cls-2" d="M31.25,30.7l-.42.42a6.48,6.48,0,0,0,4.62,4.62l.42-.42a5.88,5.88,0,0,1-3-1.62A6,6,0,0,1,31.25,30.7Z"/><path class="cls-2" d="M32.55,25.6l-.37-.38a6.48,6.48,0,0,0-1.57,4.24c0,.15,0,.3,0,.45l.48-.48A6,6,0,0,1,32.55,25.6Z"/><path class="cls-2" d="M37.15,35.46l-.48.48.45,0a6.42,6.42,0,0,0,4.23-1.57L41,34A6,6,0,0,1,37.15,35.46Z"/><path class="cls-2" d="M31.25,30.7a6.1,6.1,0,0,1-.14-1.27l-.48.48a7,7,0,0,0,.2,1.21Z"/><path class="cls-2" d="M35.87,35.32l-.42.42a6.21,6.21,0,0,0,1.22.2l.48-.48A6.12,6.12,0,0,1,35.87,35.32Z"/><polygon class="cls-2" points="39.18 32.22 39.18 32.22 34.35 27.39 34.35 27.39 39.18 32.22"/><path class="cls-2" d="M31.66,28.88a5.42,5.42,0,0,1,1.22-2.95l.87.86h0l-1.2-1.19a6,6,0,0,0-1.44,3.83Z"/><path class="cls-2" d="M33.22,33.35a5.48,5.48,0,0,1-1.53-3.09l-.44.44a6,6,0,0,0,1.62,3,5.88,5.88,0,0,0,3,1.62l.44-.44A5.45,5.45,0,0,1,33.22,33.35Z"/><polygon class="cls-2" points="40.64 33.69 39.78 32.83 39.78 32.83 40.64 33.69"/><path class="cls-2" d="M37.69,34.91l-.54.55A6,6,0,0,0,41,34l-.34-.33A5.42,5.42,0,0,1,37.69,34.91Z"/><polygon class="cls-2" points="34.35 27.39 33.75 26.79 33.75 26.79 34.35 27.39 34.35 27.39"/><path class="cls-2" d="M31.61,29.46a5.44,5.44,0,0,1,.05-.58l-.55.55a6.1,6.1,0,0,0,.14,1.27l.44-.44A5.29,5.29,0,0,1,31.61,29.46Z"/><polygon class="cls-2" points="39.78 32.83 39.78 32.83 39.18 32.22 39.18 32.22 39.78 32.83"/><path class="cls-2" d="M37.12,35a5.42,5.42,0,0,1-.81-.08l-.44.44a6.12,6.12,0,0,0,1.28.14l.54-.55A5.48,5.48,0,0,1,37.12,35Z"/><path class="cls-2" d="M64.84,33.05,33.06,1.27a2.85,2.85,0,0,0-4,0L20.64,9.68a2.81,2.81,0,0,0-.83,2,2.85,2.85,0,0,0,.83,2L32.18,25.22c.11-.12.22-.25.34-.37l.35-.35,9.2,9.2L21.35,13a1.82,1.82,0,0,1-.54-1.3,1.78,1.78,0,0,1,.54-1.29L29.75,2a1.83,1.83,0,0,1,2.6,0L64.13,33.76a1.84,1.84,0,0,1,0,2.59l-8.41,8.41a1.88,1.88,0,0,1-2.59,0L42.07,33.7l-.35.36c-.12.12-.25.22-.37.33L52.42,45.47a2.86,2.86,0,0,0,4,0l8.41-8.41A2.85,2.85,0,0,0,64.84,33.05Z"/><path class="cls-2" d="M42.07,33.7l-9.2-9.2-.35.35c-.12.12-.23.25-.34.37l.37.38c.11-.13.2-.27.32-.39l8.5,8.49c-.13.12-.27.21-.39.32l.37.37c.12-.11.25-.21.37-.33Z"/><path class="cls-2" d="M33.9,26.64l.33.57a1.88,1.88,0,0,0,.12.18l4.83,4.83.18.13.58.32-.16.16.86.86L41,34c.12-.11.26-.2.39-.32l-8.5-8.49c-.12.12-.21.26-.32.39l1.2,1.19Z"/><path class="cls-2" d="M34.23,27.21l-.33-.57-.15.15.6.6A1.88,1.88,0,0,1,34.23,27.21Z"/><path class="cls-2" d="M39.94,32.67l-.58-.32-.18-.13.6.61Z"/><path class="cls-2" d="M67.64,42.7l-.31-.31-.12-.07-5.5,5.5s0,.08.08.11l.31.31a1.22,1.22,0,0,0,1.73,0l3.81-3.81A1.22,1.22,0,0,0,67.64,42.7Z"/><rect class="cls-2" x="58.13" y="42.04" width="9.5" height="2.89" transform="translate(-12.33 57.2) rotate(-45)"/><path class="cls-2" d="M12.86,45.11h-.58a6.78,6.78,0,0,0,0,6.54h.58a6.27,6.27,0,0,1,0-6.54Z"/><path class="cls-2" d="M3.26,45.11H2.62a4.84,4.84,0,0,1,1.27,3.27,4.84,4.84,0,0,1-1.27,3.27h.64a5.4,5.4,0,0,0,1.13-3.27A5.35,5.35,0,0,0,3.26,45.11Z"/><path class="cls-2" d="M1.39,44.13a4.88,4.88,0,0,1,1.23,1h.64a5.57,5.57,0,0,0-1-1H1.39Z"/><path class="cls-2" d="M3.89,48.38a4.84,4.84,0,0,0-1.27-3.27H2.39v.5a4.37,4.37,0,0,1,1,2.77,4.37,4.37,0,0,1-1,2.77v.5h.23A4.84,4.84,0,0,0,3.89,48.38Z"/><path class="cls-1" d="M1.39,44.13a4.88,4.88,0,0,1,1.23,1H2.39v.5a4.69,4.69,0,0,0-.89-.83V52a4.34,4.34,0,0,0,.89-.82v.5H12.86a6.27,6.27,0,0,1,0-6.54H3.26a5.57,5.57,0,0,0-1-1H1.39Z"/><path class="cls-1" d="M19.23,42.72a5.82,5.82,0,0,0-1-.1H17.9a5.78,5.78,0,0,0-3.56,1.48,5.58,5.58,0,0,0-.88,1,5.75,5.75,0,0,0,0,6.54,6,6,0,0,0,.88,1,5.75,5.75,0,0,0,9.6-4c0-.1,0-.19,0-.29a5.91,5.91,0,0,0-.1-1A5.76,5.76,0,0,0,19.23,42.72Z"/><path class="cls-1" d="M24.68,46.51,35.45,35.74a6.48,6.48,0,0,1-4.62-4.62L20.06,41.89A6.75,6.75,0,0,1,24.68,46.51Z"/><path class="cls-2" d="M3.26,45.11h9a6.77,6.77,0,0,1,.68-1H2.26A5.57,5.57,0,0,1,3.26,45.11Z"/><path class="cls-2" d="M24.92,47.69,36.67,35.94a6.21,6.21,0,0,1-1.22-.2L24.68,46.51A6.49,6.49,0,0,1,24.92,47.69Z"/><path class="cls-2" d="M30.83,31.12a7,7,0,0,1-.2-1.21L18.88,41.66a6.48,6.48,0,0,1,1.18.23Z"/><path class="cls-2" d="M18.19,42.12h.22l.47-.47a5.12,5.12,0,0,0-.69,0A6.73,6.73,0,0,0,13,44.11h.67A6.23,6.23,0,0,1,18.19,42.12Z"/><path class="cls-2" d="M24.44,48.17c0,.07,0,.14,0,.21a6.25,6.25,0,0,1-10.82,4.27H13a6.75,6.75,0,0,0,12-4.27q0-.35,0-.69Z"/><path class="cls-2" d="M24.27,46.92l.41-.41a6.75,6.75,0,0,0-4.62-4.62l-.41.41A6.23,6.23,0,0,1,24.27,46.92Z"/><path class="cls-2" d="M12.86,45.11a6.19,6.19,0,0,1,.77-1H13a6.77,6.77,0,0,0-.68,1Z"/><path class="cls-2" d="M12.86,51.65h-.58a8.38,8.38,0,0,0,.68,1h.67A6.66,6.66,0,0,1,12.86,51.65Z"/><path class="cls-2" d="M24.27,46.92a5.71,5.71,0,0,1,.17,1.25l.48-.48a6.49,6.49,0,0,0-.24-1.18Z"/><path class="cls-2" d="M19.65,42.3l.41-.41a6.48,6.48,0,0,0-1.18-.23l-.47.47A6.28,6.28,0,0,1,19.65,42.3Z"/><path class="cls-2" d="M12.44,48.38a5.76,5.76,0,0,1,1-3.27h-.6a6.27,6.27,0,0,0,0,6.54h.6A5.76,5.76,0,0,1,12.44,48.38Z"/><path class="cls-2" d="M18.19,54.14a5.74,5.74,0,0,1-3.85-1.49h-.71a6.25,6.25,0,0,0,10.82-4.27c0-.07,0-.14,0-.21l-.5.5A5.77,5.77,0,0,1,18.19,54.14Z"/><path class="cls-2" d="M23.85,47.34l.42-.42a6.23,6.23,0,0,0-4.62-4.62l-.42.42A5.76,5.76,0,0,1,23.85,47.34Z"/><path class="cls-2" d="M17.9,42.63l.51-.5h-.22a6.23,6.23,0,0,0-4.56,2h.71A5.78,5.78,0,0,1,17.9,42.63Z"/><path class="cls-2" d="M14.34,44.11h-.71a6.19,6.19,0,0,0-.77,1h.6A5.58,5.58,0,0,1,14.34,44.11Z"/><path class="cls-2" d="M13.46,51.65h-.6a6.66,6.66,0,0,0,.77,1h.71A6,6,0,0,1,13.46,51.65Z"/><path class="cls-2" d="M18.19,42.62a5.82,5.82,0,0,1,1,.1l.42-.42a6.28,6.28,0,0,0-1.24-.17l-.51.5Z"/><path class="cls-2" d="M23.85,47.34a5.91,5.91,0,0,1,.1,1c0,.1,0,.19,0,.29l.5-.5a5.71,5.71,0,0,0-.17-1.25Z"/><path class="cls-2" d="M3.26,51.65H2.39v-.5A4.34,4.34,0,0,1,1.5,52V44.78a4.69,4.69,0,0,1,.89.83v-.5h.23a4.88,4.88,0,0,0-1.23-1v0h.87a5.36,5.36,0,0,0-1-.64L.5,43.15V53.61l.71-.32a5.48,5.48,0,0,0,1-.64H13a8.38,8.38,0,0,1-.68-1Z"/></g></g></g></svg>